<?xml version="1.0" encoding="UTF-8" standalone="no"?>
<!-- Created with Inkscape (http://www.inkscape.org/) -->

<svg
   xmlns:dc="http://purl.org/dc/elements/1.1/"
   xmlns:cc="http://creativecommons.org/ns#"
   xmlns:rdf="http://www.w3.org/1999/02/22-rdf-syntax-ns#"
   xmlns:svg="http://www.w3.org/2000/svg"
   xmlns="http://www.w3.org/2000/svg"
   xmlns:sodipodi="http://sodipodi.sourceforge.net/DTD/sodipodi-0.dtd"
   xmlns:inkscape="http://www.inkscape.org/namespaces/inkscape"
   width="48px"
   height="48px"
   id="svg4054"
   version="1.1"
   inkscape:version="0.48.4 r9939"
   sodipodi:docname="haproxy.svg">
  <defs
     id="defs4056">
    <inkscape:perspective
       sodipodi:type="inkscape:persp3d"
       inkscape:vp_x="-7.5670447 : 4.6551147 : 1"
       inkscape:vp_y="0.44559624 : -117.12451 : 0"
       inkscape:vp_z="78.086671 : 0.73614976 : 1"
       inkscape:persp3d-origin="-41.883003 : 25.376284 : 1"
       id="perspective3762" />
  </defs>
  <sodipodi:namedview
     id="base"
     pagecolor="#ffffff"
     bordercolor="#666666"
     borderopacity="1.0"
     inkscape:pageopacity="0.0"
     inkscape:pageshadow="2"
     inkscape:zoom="7"
     inkscape:cx="10.193886"
     inkscape:cy="21.960379"
     inkscape:current-layer="layer1"
     showgrid="true"
     inkscape:grid-bbox="true"
     inkscape:document-units="px"
     inkscape:snap-bbox="false"
     inkscape:bbox-paths="false"
     inkscape:bbox-nodes="false"
     inkscape:snap-bbox-edge-midpoints="false"
     inkscape:snap-bbox-midpoints="false"
     inkscape:object-paths="true"
     inkscape:snap-intersection-paths="true"
     inkscape:object-nodes="true"
     inkscape:snap-smooth-nodes="true"
     inkscape:snap-midpoints="true"
     inkscape:snap-nodes="false"
     inkscape:window-width="871"
     inkscape:window-height="601"
     inkscape:window-x="40"
     inkscape:window-y="29"
     inkscape:window-maximized="0" />
  <metadata
     id="metadata4059">
    <rdf:RDF>
      <cc:Work
         rdf:about="">
        <dc:format>image/svg+xml</dc:format>
        <dc:type
           rdf:resource="http://purl.org/dc/dcmitype/StillImage" />
        <dc:title />
      </cc:Work>
    </rdf:RDF>
  </metadata>
  <g
     id="layer1"
     inkscape:label="Layer 1"
     inkscape:groupmode="layer">
    <path
       style="fill:#000080;fill-opacity:1"
       d="m 0.11265262,0.11143341 48.21428638,0 0,48.07143059 -48.21428638,0 z"
       id="rect3956" />
    <g
       id="g3748"
       style="fill:none">
      <path
         d="m 47.476845,36.18552 -19.176882,2.49427 0.02087,5.484796 19.188039,0.438267 z"
         style="fill:#8686bf;fill-rule:evenodd;stroke:none"
         id="path3049" />
      <path
         d="M 28.299963,38.67979 28.32083,44.164586 0.90319931,42.4571 0.87083642,33.95055 z"
         style="fill:#d7d7ff;fill-rule:evenodd;stroke:none"
         id="path3051" />
      <path
         d="M 47.476845,36.18552 28.299963,38.67979 0.87083642,33.95055 10.789481,22.907603 z"
         style="fill:#4d4d9f;fill-rule:evenodd;stroke:none"
         id="path3053" />
      <path
         d="M 47.508869,44.602853 28.32083,44.164586 0.90319931,42.4571 10.859886,41.413518 z"
         style="fill:#afafde;fill-rule:evenodd;stroke:none"
         id="path3055" />
      <path
         d="m 47.476845,36.18552 0.03202,8.417333 -36.648983,-3.189335 -0.0704,-18.505915 z"
         style="fill:#353564;fill-rule:evenodd;stroke:none"
         id="path3057" />
      <path
         d="M 10.789481,22.907603 0.87083642,33.95055 0.90319931,42.4571 10.859886,41.413518 z"
         style="fill:#e9e9ff;fill-rule:evenodd;stroke:none"
         id="path3059" />
    </g>
    <g
       transform="matrix(0.87609255,0.30874982,-0.65167145,0.91177189,0,0)"
       inkscape:transform-center-x="-4.2484888"
       inkscape:transform-center-y="10.002128"
       style="font-size:9.5444088px;font-style:normal;font-variant:normal;font-weight:normal;font-stretch:normal;line-height:125%;letter-spacing:0px;word-spacing:0px;fill:#ffffff;fill-opacity:1;stroke:none;font-family:Comfortaa;-inkscape-font-specification:Comfortaa"
       id="text3860">
      <path
         d="m 19.500605,14.917885 c -0.02797,0.136704 -0.09943,0.253213 -0.214377,0.349526 -0.114961,0.09631 -0.24079,0.144471 -0.377489,0.144471 -0.136708,0 -0.243897,-0.04816 -0.321564,-0.144471 -0.07768,-0.09631 -0.102533,-0.212822 -0.07457,-0.349526 l 0.549922,-2.74029 -3.322834,0 -0.549922,2.74029 c -0.02796,0.136704 -0.09942,0.253213 -0.214376,0.349526 -0.114957,0.09631 -0.240786,0.144471 -0.377489,0.144471 -0.136704,0 -0.243892,-0.04816 -0.321564,-0.144471 -0.07767,-0.09631 -0.102529,-0.212822 -0.07457,-0.349526 l 1.295579,-6.4685743 c 0.02796,-0.1366966 0.09942,-0.2532054 0.214376,-0.3495266 0.114954,-0.096307 0.240783,-0.1444636 0.377489,-0.1444711 0.136701,7.5e-6 0.243889,0.048164 0.321565,0.1444711 0.07767,0.096321 0.102525,0.21283 0.07456,0.3495266 l -0.549922,2.7402893 3.322834,0 0.549922,-2.7402893 c 0.02796,-0.1366966 0.09942,-0.2532054 0.214376,-0.3495266 0.114949,-0.096307 0.240779,-0.1444636 0.377489,-0.1444711 0.136697,7.5e-6 0.243885,0.048164 0.321565,0.1444711 0.07766,0.096321 0.10252,0.21283 0.07456,0.3495266 l -1.295578,6.4685743"
         style="font-style:italic;font-weight:bold;text-align:center;text-anchor:middle;fill:#ffffff;-inkscape-font-specification:Comfortaa Bold Italic"
         id="path3031" />
      <path
         d="m 24.594374,11.907295 -0.39147,-2.0925 -1.230334,2.0925 1.621804,0 m -4.324811,2.786893 3.770228,-6.4033294 c 0.142913,-0.2236897 0.32156,-0.3355381 0.535941,-0.3355456 0.220585,7.5e-6 0.355736,0.1118559 0.405451,0.3355456 l 1.211693,6.4266304 c 0.01242,0.06214 0.01087,0.128937 -0.0047,0.200396 -0.02797,0.136704 -0.09943,0.253213 -0.214376,0.349526 -0.114962,0.09631 -0.240791,0.144471 -0.377489,0.144471 -0.136709,0 -0.242344,-0.04816 -0.316904,-0.144471 -0.0404,-0.04971 -0.0668,-0.102527 -0.07923,-0.158452 l -0.419432,-2.213669 -2.386102,0 -1.30956,2.213669 c -0.03728,0.05593 -0.08544,0.108742 -0.144471,0.158452 -0.114957,0.09631 -0.240786,0.144471 -0.377489,0.144471 -0.136705,0 -0.243893,-0.04816 -0.321565,-0.144471 -0.07457,-0.09631 -0.09787,-0.212822 -0.0699,-0.349526 0.01553,-0.07456 0.04816,-0.149131 0.09787,-0.223697"
         style="font-style:italic;font-weight:bold;text-align:center;text-anchor:middle;fill:#ffffff;-inkscape-font-specification:Comfortaa Bold Italic"
         id="path3033" />
      <path
         d="m 31.850548,8.9433085 -0.596526,2.9639865 0.941392,0 c 0.201946,3e-6 0.399234,-0.03883 0.591865,-0.116509 0.195731,-0.07767 0.374378,-0.183304 0.535941,-0.316904 0.164662,-0.133593 0.304472,-0.290492 0.419432,-0.470696 0.114951,-0.180196 0.192623,-0.372824 0.233018,-0.577884 0.04039,-0.208158 0.03883,-0.402339 -0.0047,-0.5825449 C 33.930615,9.6625625 33.85605,9.505664 33.747313,9.3720612 33.638566,9.2384705 33.501863,9.1343893 33.337201,9.0598174 33.172531,8.9821512 32.990778,8.9433149 32.79194,8.9433085 l -0.941392,0 M 29.664841,14.917885 30.96042,8.4493107 c 0.01243,-0.068345 0.03728,-0.1320363 0.07456,-0.1910745 0.03728,-0.062131 0.08233,-0.1149482 0.135151,-0.1584521 0.05592,-0.046596 0.114953,-0.082326 0.177093,-0.1071882 0.06524,-0.024848 0.133595,-0.037275 0.205056,-0.037283 l 1.43539,0 c 0.223693,7.5e-6 0.433408,0.029523 0.629148,0.088547 0.198837,0.059038 0.379037,0.1429248 0.540601,0.2516592 0.161554,0.1087486 0.302918,0.2392385 0.424092,0.3914699 0.124271,0.149138 0.220585,0.3153572 0.288942,0.4986581 0.07145,0.1833133 0.116503,0.3806015 0.135151,0.5918652 0.01864,0.208168 0.0062,0.4240978 -0.03728,0.6477898 -0.13671,0.677309 -0.49711,1.259853 -1.081203,1.747633 -0.577888,0.481573 -1.207035,0.722358 -1.887444,0.722355 l -0.941392,0 -0.405451,2.022595 c -0.02796,0.136704 -0.09942,0.253213 -0.214376,0.349526 -0.114957,0.09631 -0.240786,0.144471 -0.377489,0.144471 -0.136704,0 -0.243893,-0.04816 -0.321565,-0.144471 -0.07767,-0.09631 -0.102528,-0.212822 -0.07456,-0.349526"
         style="font-style:italic;font-weight:bold;text-align:center;text-anchor:middle;fill:#ffffff;-inkscape-font-specification:Comfortaa Bold Italic"
         id="path3035" />
      <path
         d="m 36.869752,8.9433085 -0.52196,2.6051385 1.304899,0 c 0.180197,4e-6 0.355737,-0.03417 0.526621,-0.102527 0.173982,-0.06835 0.330881,-0.161555 0.470696,-0.279622 0.139806,-0.121165 0.259421,-0.259422 0.358847,-0.414771 0.09942,-0.158448 0.167768,-0.32622 0.205056,-0.503319 0.03417,-0.180195 0.03262,-0.3495211 -0.0047,-0.5079787 C 39.175069,9.5817831 39.109824,9.443526 39.013515,9.3254576 38.920303,9.2074015 38.800688,9.1141945 38.654668,9.0458363 38.511746,8.9774908 38.351741,8.9433149 38.174651,8.9433085 l -1.304899,0 m -2.185707,5.9745765 1.295579,-6.4685743 c 0.01243,-0.068345 0.03728,-0.1320363 0.07456,-0.1910745 0.03728,-0.062131 0.08233,-0.1149482 0.135151,-0.1584521 0.05592,-0.046596 0.114953,-0.082326 0.177093,-0.1071882 0.06524,-0.024848 0.133595,-0.037275 0.205056,-0.037283 l 1.798897,0 c 0.313793,7.5e-6 0.596521,0.060592 0.848185,0.1817539 0.254761,0.1211764 0.464477,0.2858422 0.629148,0.4939977 0.167767,0.2081692 0.284276,0.4520609 0.349527,0.7316759 0.06524,0.2765202 0.06679,0.5716758 0.0047,0.8854675 -0.0435,0.205061 -0.110301,0.405456 -0.200395,0.601186 -0.09011,0.192632 -0.203508,0.37594 -0.340206,0.549922 -0.133602,0.170884 -0.290501,0.330889 -0.470696,0.480017 -0.180205,0.146028 -0.380601,0.274964 -0.601186,0.386809 l 1.011297,2.381442 c 0.03417,0.08699 0.04194,0.177094 0.0233,0.270301 -0.01243,0.07146 -0.03729,0.136704 -0.07457,0.195735 -0.03729,0.05903 -0.08389,0.111848 -0.13981,0.158452 -0.05282,0.0435 -0.111854,0.07767 -0.177094,0.102528 -0.06525,0.02486 -0.132048,0.03728 -0.200395,0.03728 -0.173992,0 -0.299821,-0.08078 -0.377489,-0.242338 l -1.118486,-2.633101 -1.388786,0 -0.475356,2.381442 c -0.02796,0.136704 -0.09942,0.253213 -0.214376,0.349526 -0.114957,0.09631 -0.240786,0.144471 -0.377489,0.144471 -0.136705,0 -0.243893,-0.04816 -0.321565,-0.144471 -0.07767,-0.09631 -0.102528,-0.212822 -0.07456,-0.349526"
         style="font-style:italic;font-weight:bold;text-align:center;text-anchor:middle;fill:#ffffff;-inkscape-font-specification:Comfortaa Bold Italic"
         id="path3037" />
      <path
         d="m 45.225769,8.9433085 c -0.385261,6.4e-6 -0.751876,0.066805 -1.099844,0.2003953 -0.34487,0.133603 -0.678862,0.3355515 -1.001977,0.6058462 -0.323121,0.270306 -0.582547,0.563908 -0.778279,0.880807 -0.195737,0.316909 -0.332441,0.667989 -0.410111,1.053241 -0.152241,0.758087 -0.01398,1.404323 0.414771,1.938708 0.425643,0.534388 1.017508,0.801582 1.775596,0.801581 0.758079,10e-7 1.458686,-0.267193 2.10182,-0.801581 0.640016,-0.534385 1.036145,-1.180621 1.188391,-1.938708 C 47.568367,10.928625 47.43011,10.283943 47.001364,9.74955 46.572605,9.2120619 45.98074,8.9433149 45.225769,8.9433085 m 3.178363,2.7402895 c -0.205064,1.028388 -0.745665,1.907641 -1.621804,2.637761 -0.873046,0.727016 -1.823758,1.090523 -2.852138,1.090523 -1.031495,0 -1.837736,-0.363507 -2.418725,-1.090523 -0.580992,-0.727014 -0.768959,-1.606266 -0.563903,-2.637761 0.205055,-1.028381 0.744102,-1.9060802 1.617144,-2.6331013 0.876143,-0.7301154 1.828408,-1.0951762 2.856798,-1.0951837 1.025272,7.5e-6 1.829959,0.3650683 2.414064,1.0951837 0.292041,0.3666206 0.484669,0.7674108 0.577884,1.2023713 0.09631,0.434972 0.0932,0.911881 -0.0093,1.43073"
         style="font-style:italic;font-weight:bold;text-align:center;text-anchor:middle;fill:#ffffff;-inkscape-font-specification:Comfortaa Bold Italic"
         id="path3039" />
      <path
         d="m 48.213058,15.267411 c -0.114956,0.09631 -0.240786,0.144471 -0.377488,0.144471 -0.136705,0 -0.243893,-0.0466 -0.321565,-0.13981 -0.07767,-0.09631 -0.102528,-0.212823 -0.07457,-0.349527 0.02486,-0.118062 0.08078,-0.222143 0.167773,-0.312244 l 2.866119,-2.926703 -1.70569,-2.9453452 c -0.04039,-0.08388 -0.04971,-0.1801936 -0.02796,-0.2889421 0.02796,-0.1366966 0.09942,-0.2532054 0.214376,-0.3495266 0.114953,-0.096307 0.240783,-0.1444636 0.377489,-0.1444711 0.149129,7.5e-6 0.256317,0.048164 0.321564,0.1444711 l 1.612484,2.7775719 2.721647,-2.7775719 c 0.105628,-0.096307 0.231457,-0.1444636 0.377489,-0.1444711 0.136696,7.5e-6 0.242331,0.048164 0.316904,0.1444711 0.07766,0.096321 0.10252,0.21283 0.07457,0.3495266 -0.02176,0.1087485 -0.07147,0.2050625 -0.149131,0.2889421 l -2.87544,2.9453452 1.691709,2.926703 c 0.05281,0.0901 0.06679,0.194182 0.04194,0.312244 -0.02797,0.136704 -0.09943,0.253213 -0.214376,0.349527 -0.111855,0.09321 -0.236131,0.13981 -0.372828,0.13981 -0.164672,0 -0.281181,-0.05903 -0.349527,-0.177093 l -1.589181,-2.74495 -2.726309,2.777572"
         style="font-style:italic;font-weight:bold;text-align:center;text-anchor:middle;fill:#ffffff;-inkscape-font-specification:Comfortaa Bold Italic"
         id="path3041" />
      <path
         d="m 56.396642,8.1603687 1.230334,2.6237803 2.274253,-2.6237803 c 0.12427,-0.1366964 0.273401,-0.2050482 0.447394,-0.2050557 0.136697,7.5e-6 0.242332,0.048164 0.316905,0.1444711 0.07766,0.096321 0.10252,0.21283 0.07456,0.3495266 -0.02175,0.1118554 -0.06525,0.2050625 -0.13049,0.2796214 l -2.698346,3.1037969 -0.619827,3.085156 c -0.02797,0.136704 -0.09942,0.253213 -0.214376,0.349526 -0.114959,0.09631 -0.240789,0.144471 -0.377489,0.144471 -0.1336,0 -0.240788,-0.04816 -0.321565,-0.144471 -0.07767,-0.09631 -0.10253,-0.212822 -0.07456,-0.349526 l 0.619827,-3.085156 -1.454031,-3.1037969 c -0.03728,-0.080773 -0.04505,-0.1739798 -0.0233,-0.2796214 0.02796,-0.1366966 0.09942,-0.2532054 0.214376,-0.3495266 0.114954,-0.096307 0.240783,-0.1444636 0.377489,-0.1444711 0.173984,7.5e-6 0.2936,0.068359 0.358848,0.2050557"
         style="font-style:italic;font-weight:bold;text-align:center;text-anchor:middle;fill:#ffffff;-inkscape-font-specification:Comfortaa Bold Italic"
         id="path3043" />
    </g>
    <path
       transform="matrix(1,0,0,1.3,1.6840812,-19.902852)"
       style="fill:#000000;fill-opacity:1"
       d="M 33.5,43.5 C 33.5,44.880712 32.268783,46 30.75,46 29.231217,46 28,44.880712 28,43.5 28,42.119288 29.231217,41 30.75,41 c 1.518783,0 2.75,1.119288 2.75,2.5 z"
       id="path3958" />
    <path
       style="fill:#000000;fill-opacity:1"
       d="m 9.9313145,22.907602 1.8571425,0 0,18.505917 -1.8571425,0 z"
       id="rect3960" />
    <path
       style="fill:#000000;fill-opacity:1"
       d="m 46.294582,35.888569 1.214286,0 0,8.714286 -1.214286,0 z"
       id="rect3962" />
    <path
       transform="translate(48.714286,-6.5714286)"
       style="fill:#ffff00;fill-opacity:1"
       inkscape:transform-center-x="-0.1231401"
       inkscape:transform-center-y="-0.061909193"
       d="m -32.088422,22.898829 1.270069,0.08285 0.788271,-0.999282 0.313677,1.233509 1.193963,0.440895 -1.076205,0.6795 -0.05036,1.271771 -0.978809,-0.813555 -1.225088,0.345102 0.471268,-1.182304 z"
       id="path4144" />
    <path
       transform="matrix(0.75824176,0,0,0.98571429,9.2115537,-6.302852)"
       style="fill:#e6e6e6;fill-opacity:1"
       d="M 33.5,43.5 C 33.5,44.880712 32.268783,46 30.75,46 29.231217,46 28,44.880712 28,43.5 28,42.119288 29.231217,41 30.75,41 c 1.518783,0 2.75,1.119288 2.75,2.5 z"
       id="path4146" />
  </g>
</svg>
